<svg id="Layer_1" data-name="Layer 1" xmlns="http://www.w3.org/2000/svg" viewBox="0 0 813.402 168.029"><defs><style>.cls-1{fill:#fff;stroke:#000;stroke-miterlimit:10;stroke-width:4px;}</style></defs><path class="cls-1" d="M6855.984,6878.972q-26.732,27.185-54.7,27.183a58.021,58.021,0,0,1-15.622-2.087,125.847,125.847,0,0,1-18.273-7.049,126.405,126.405,0,0,0-19.005-7.219q-15.226,16.7-27.522,16.693a9.634,9.634,0,0,1-7.106-2.819,9.36,9.36,0,0,1-2.819-6.881q0-8.571,8.4-15.058t23.744-8.967q6.429-8.8,8.233-17.2t2.82-27.69q1.917-39.7,21.262-62.205t42.015-22.5q15.566,0,25.548,9.87t9.982,25.209a48.657,48.657,0,0,1-10.49,31.018q-10.489,13.31-24.137,13.31-7.107,0-11.167-3.892t-4.061-10.659a29.458,29.458,0,0,1,1.354-8.121,9.735,9.735,0,0,0,7.67,3.5q7.669,0,13.422-9.137t5.753-21.769q0-9.7-4.4-15.283a14.5,14.5,0,0,0-12.054-5.583q-9.243,0-14.368,6.655a39.547,39.547,0,0,0-7.153,15.905q-2.031,9.25-4.325,29.892a176.006,176.006,0,0,1-7.668,36.6q-5.375,15.96-20.081,31.3a52.626,52.626,0,0,1,16.637,1.128,202.853,202.853,0,0,1,20.19,6.823q13.139,5.022,22.615,5.02,18.5,0,35.3-18.949Z" transform="translate(-6708.933 -6741.169)"/><path class="cls-1" d="M6911.365,6878.972q-26.392,27.747-39.477,27.747-7.22,0-12.181-7.388t-4.963-18.554q0-24.025,16.242-66.548l28.649-5.978h1.353l-11.279,35.3q-6.993,21.883-6.992,31.244a10.225,10.225,0,0,0,1.635,6.034,4.88,4.88,0,0,0,4.117,2.312,15.089,15.089,0,0,0,8.853-3.215q4.456-3.213,14.043-13.929Zm-2.256-114.823q0,27.07-19.963,27.07a24.7,24.7,0,0,1-16.581-5.865,81.9,81.9,0,0,0,10.152-22.333q8.909,5.528,14.324,5.527A20.246,20.246,0,0,0,6909.109,6764.149Z" transform="translate(-6708.933 -6741.169)"/><path class="cls-1" d="M6946.106,6812.875q7.784-2.03,15.679-3.327a94.8,94.8,0,0,1,9.475-1.3c.75,0,1.127.3,1.127.9a7.778,7.778,0,0,1-.9,3.493,30.179,30.179,0,0,0-1.8,9.921q.018,5.863,6.777,16.02t6.758,18.842q0,17.256-16.524,33.273t-34.232,16.017a25.323,25.323,0,0,1-13.986-4.06q-6.319-4.062-6.317-8.686,0-2.706,6.26-10.264t8.967-7.557q3.608,0,6.429,9.249t9.7,9.249q6.879,0,12.915-6.373t6.034-13.707q.006-7.107-7.666-18.948t-10.154-19.85a301.033,301.033,0,0,1-33.162,43.2h-2.594v-10.151Q6936.518,6839.382,6946.106,6812.875Z" transform="translate(-6708.933 -6741.169)"/><path class="cls-1" d="M7070.065,6878.972q-14.211,14.1-24.588,20.81t-19.739,6.711q-9.7,0-15.735-8.177t-6.034-21.487q0-11.73,5.788-30.974l4.784-17.076-8.654.451,3.612-17.708,10.725-.451,10.589-35.192,30.132-6.184-11.658,39.233,15.928-.9-3.726,17.37-17.5,1.354-7.513,25.274q-3.917,13.173-3.916,20.962a13.434,13.434,0,0,0,2.655,8.636,8.343,8.343,0,0,0,6.834,3.329,20.763,20.763,0,0,0,11.408-3.666q5.648-3.663,16.6-15.283Z" transform="translate(-6708.933 -6741.169)"/><path class="cls-1" d="M7154.321,6878.972q-14.325,14.1-25.717,20.81a48.653,48.653,0,0,1-25.153,6.711q-15.339,0-24.758-9.813t-9.418-25.829q0-23.911,16.58-43.256t36.772-19.344q10.488,0,16.806,5.414a17.815,17.815,0,0,1,6.316,14.212q0,23.347-49.629,37.9,4.511,21.995,23.573,22a27.484,27.484,0,0,0,14.213-4.005q6.768-4,20.415-17.764Zm-59.1-20.867q28.873-8.121,28.875-30,0-10.827-7.9-10.828-7.444,0-14.212,11.336T7095.218,6858.105Z" transform="translate(-6708.933 -6741.169)"/><path class="cls-1" d="M7265.084,6878.972q-26.055,27.522-44.666,27.521a15.378,15.378,0,0,1-12.182-5.3q-4.626-5.3-4.625-14.212,0-12.067,9.926-36.883,5.3-13.308,5.3-16.919t-2.819-3.609a8.8,8.8,0,0,0-4.174,1.579,51.741,51.741,0,0,0-5.528,4.4q-2.82,2.6-6.316,6.316-3.044,3.159-6.541,7.219l-6.316,7.331a23.3,23.3,0,0,0-5.19,10.716,171.427,171.427,0,0,0-2.256,17.6q-.336,5.98-.338,16.13l-24.927,5.865q-1.244-15.226-1.241-22.671a136.071,136.071,0,0,1,4.23-34.4,223.048,223.048,0,0,1,13.592-36.545l27.521-5.3q-8.686,23.347-11.391,36.77,18.483-20.641,29.35-28.593t19.311-7.952a12.241,12.241,0,0,1,9.571,4.338,15.819,15.819,0,0,1,3.828,10.868q0,10.815-9.7,35.63-6.654,17.034-6.653,22.122,0,6.789,5.541,6.787,8.253,0,26.688-21.769Z" transform="translate(-6708.933 -6741.169)"/><path class="cls-1" d="M7439.914,6762.118q-11.056,4.514-20.078,4.512a36.73,36.73,0,0,1-12.633-2.651q-7.1-2.648-10.715-2.65a21.985,21.985,0,0,0-21.318,21.318q0,7.557,7.219,12.407,3.723,2.82,3.722,4.85,0,3.384-4.4,8.29t-8.348,4.907q-4.512,0-8.233-6.091a25.849,25.849,0,0,1-3.722-13.761q0-16.918,16.242-33.5t32.709-16.581q4.85,0,12.633,2.763a41.147,41.147,0,0,0,13.423,2.764,19.674,19.674,0,0,0,11.618-3.948,8.157,8.157,0,0,1,3.834-1.579,9.747,9.747,0,0,1,4.569,1.749q2.875,1.749,2.876,3.778,0,1.129-5.987,7.781a54.781,54.781,0,0,0-12.539,21.485q-3.5,11.674-7.08,36.041t-7.92,39.765a86.963,86.963,0,0,1-13.428,27.858,59.761,59.761,0,0,1-21.38,18.666,58.8,58.8,0,0,1-26.851,6.2q-17.262,0-27.813-7.951t-10.548-15.171q0-4.171,8.121-11.223t10.6-7.05q3.272,0,4.061,2.369a29.465,29.465,0,0,1,.79,8.234q0,9.927,4.455,15.96a13.849,13.849,0,0,0,11.675,6.035q10.713,0,18.216-11.28t12.237-41.169q4.737-29.889,12.746-45.907T7439.914,6762.118Z" transform="translate(-6708.933 -6741.169)"/><path class="cls-1" d="M7520.335,6878.972q-14.213,14.1-24.589,20.81t-19.738,6.711q-9.7,0-15.736-8.177t-6.034-21.487q0-11.73,5.788-30.974l4.785-17.076-8.655.451,3.613-17.708,10.724-.451,10.59-35.192,30.132-6.184-11.658,39.233,15.927-.9-3.725,17.37-17.5,1.354-7.513,25.274q-3.916,13.173-3.916,20.962a13.44,13.44,0,0,0,2.654,8.636,8.344,8.344,0,0,0,6.834,3.329,20.761,20.761,0,0,0,11.408-3.666q5.647-3.663,16.606-15.283Z" transform="translate(-6708.933 -6741.169)"/></svg>